<svg width="70" height="72" viewBox="0 0 70 72" fill="none" xmlns="http://www.w3.org/2000/svg">
<rect width="70" height="72" fill="#515755"/>
<path d="M28.07 50.4C25.11 50.4 22.7233 49.8933 20.91 48.88C19.1233 47.84 17.8167 46.3333 16.99 44.36C16.1633 42.3867 15.75 39.9733 15.75 37.12C15.75 34.2667 16.1633 31.8533 16.99 29.88C17.8167 27.9067 19.1233 26.4133 20.91 25.4C22.7233 24.36 25.11 23.84 28.07 23.84C32.4967 23.84 35.6567 24.9867 37.55 27.28C39.4433 29.5467 40.39 32.8267 40.39 37.12C40.39 41.3867 39.4433 44.6667 37.55 46.96C35.6567 49.2533 32.4967 50.4 28.07 50.4ZM28.07 44C29.8033 44 31.0033 43.4267 31.67 42.28C32.3633 41.1067 32.71 39.3867 32.71 37.12C32.71 34.8267 32.3633 33.1067 31.67 31.96C31.0033 30.8133 29.8033 30.24 28.07 30.24C26.3367 30.24 25.1233 30.8133 24.43 31.96C23.7633 33.1067 23.43 34.8267 23.43 37.12C23.43 39.3867 23.7633 41.1067 24.43 42.28C25.1233 43.4267 26.3367 44 28.07 44ZM46.6706 50V31.2L42.3906 31.84V25.56L54.1906 23.84V50H46.6706Z" fill="white"/>
</svg>
