<svg width="70" height="72" viewBox="0 0 70 72" fill="none" xmlns="http://www.w3.org/2000/svg">
<rect width="70" height="72" fill="#515755"/>
<path d="M24.7809 50.4C21.8209 50.4 19.4343 49.8933 17.6209 48.88C15.8343 47.84 14.5276 46.3333 13.7009 44.36C12.8743 42.3867 12.4609 39.9733 12.4609 37.12C12.4609 34.2667 12.8743 31.8533 13.7009 29.88C14.5276 27.9067 15.8343 26.4133 17.6209 25.4C19.4343 24.36 21.8209 23.84 24.7809 23.84C29.2076 23.84 32.3676 24.9867 34.2609 27.28C36.1543 29.5467 37.1009 32.8267 37.1009 37.12C37.1009 41.3867 36.1543 44.6667 34.2609 46.96C32.3676 49.2533 29.2076 50.4 24.7809 50.4ZM24.7809 44C26.5143 44 27.7143 43.4267 28.3809 42.28C29.0743 41.1067 29.4209 39.3867 29.4209 37.12C29.4209 34.8267 29.0743 33.1067 28.3809 31.96C27.7143 30.8133 26.5143 30.24 24.7809 30.24C23.0476 30.24 21.8343 30.8133 21.1409 31.96C20.4743 33.1067 20.1409 34.8267 20.1409 37.12C20.1409 39.3867 20.4743 41.1067 21.1409 42.28C21.8343 43.4267 23.0476 44 24.7809 44ZM39.1016 50V46.56C39.8482 45.1467 40.7549 43.88 41.8216 42.76C42.8882 41.64 44.0749 40.4933 45.3816 39.32C46.4749 38.3333 47.3549 37.52 48.0216 36.88C48.7149 36.24 49.2216 35.64 49.5416 35.08C49.8882 34.4933 50.0616 33.8267 50.0616 33.08C50.0616 31.1867 48.8216 30.24 46.3416 30.24C45.1949 30.24 44.0749 30.3733 42.9816 30.64C41.9149 30.9067 40.9016 31.24 39.9416 31.64V25.24C41.0349 24.8133 42.3149 24.48 43.7816 24.24C45.2482 23.9733 46.7282 23.84 48.2216 23.84C51.4216 23.84 53.8082 24.6 55.3816 26.12C56.9549 27.6133 57.7416 29.6267 57.7416 32.16C57.7416 33.36 57.5949 34.4 57.3016 35.28C57.0349 36.1333 56.6082 36.92 56.0216 37.64C55.4349 38.36 54.6749 39.1333 53.7416 39.96C52.9149 40.68 52.1016 41.4 51.3016 42.12C50.5016 42.84 49.8616 43.5467 49.3816 44.24H57.9816V50H39.1016Z" fill="white"/>
</svg>
