<svg width="70" height="72" viewBox="0 0 70 72" fill="none" xmlns="http://www.w3.org/2000/svg">
<rect width="70" height="72" fill="#515755"/>
<path d="M25.3122 50.4C22.3522 50.4 19.9655 49.8933 18.1522 48.88C16.3655 47.84 15.0589 46.3333 14.2322 44.36C13.4055 42.3867 12.9922 39.9733 12.9922 37.12C12.9922 34.2667 13.4055 31.8533 14.2322 29.88C15.0589 27.9067 16.3655 26.4133 18.1522 25.4C19.9655 24.36 22.3522 23.84 25.3122 23.84C29.7389 23.84 32.8989 24.9867 34.7922 27.28C36.6855 29.5467 37.6322 32.8267 37.6322 37.12C37.6322 41.3867 36.6855 44.6667 34.7922 46.96C32.8989 49.2533 29.7389 50.4 25.3122 50.4ZM25.3122 44C27.0455 44 28.2455 43.4267 28.9122 42.28C29.6055 41.1067 29.9522 39.3867 29.9522 37.12C29.9522 34.8267 29.6055 33.1067 28.9122 31.96C28.2455 30.8133 27.0455 30.24 25.3122 30.24C23.5789 30.24 22.3655 30.8133 21.6722 31.96C21.0055 33.1067 20.6722 34.8267 20.6722 37.12C20.6722 39.3867 21.0055 41.1067 21.6722 42.28C22.3655 43.4267 23.5789 44 25.3122 44ZM48.0728 50.4C47.3261 50.4 46.4195 50.3333 45.3528 50.2C44.2861 50.0933 43.2328 49.9333 42.1928 49.72C41.1795 49.5067 40.3261 49.2667 39.6328 49V43C40.7795 43.5067 42.0061 43.88 43.3128 44.12C44.6195 44.3333 45.8061 44.44 46.8728 44.44C48.3661 44.44 49.4728 44.2533 50.1928 43.88C50.9395 43.5067 51.3128 42.8133 51.3128 41.8C51.3128 40.3067 50.1395 39.56 47.7928 39.56H43.4328L43.9128 34.52H47.5528C48.7261 34.52 49.5661 34.3333 50.0728 33.96C50.5795 33.5867 50.8328 32.9867 50.8328 32.16C50.8328 31.3867 50.4995 30.8 49.8328 30.4C49.1928 30 48.1395 29.8 46.6728 29.8C45.4995 29.8 44.3128 29.9333 43.1128 30.2C41.9128 30.4667 40.8861 30.8133 40.0328 31.24V25.28C41.0195 24.88 42.2461 24.5467 43.7128 24.28C45.1795 23.9867 46.6461 23.84 48.1128 23.84C50.3528 23.84 52.2461 24.16 53.7928 24.8C55.3395 25.44 56.5128 26.32 57.3128 27.44C58.1128 28.56 58.5128 29.84 58.5128 31.28C58.5128 32.5067 58.2728 33.6267 57.7928 34.64C57.3395 35.6533 56.6595 36.4533 55.7528 37.04C57.9128 37.9467 58.9928 39.7467 58.9928 42.44C58.9928 44.28 58.5128 45.7867 57.5528 46.96C56.6195 48.1333 55.3261 49 53.6728 49.56C52.0461 50.12 50.1795 50.4 48.0728 50.4Z" fill="white"/>
</svg>
