<svg width="79" height="88" viewBox="0 0 79 88" fill="none" xmlns="http://www.w3.org/2000/svg">
<path d="M6.5 43.4773V11.5334H4L7 3.04834H12L15 11.5334H12.5V43.4773M6.5 43.4773H12.5M6.5 43.4773L2 43.9764V47.4703L5 48.9677V52.9606L2 54.9571V79.9133L7 85.9028H13L17 79.9133V54.9571L14 52.9606V48.9677L16.5 47.4703V43.9764L12.5 43.4773M8.5 56.9536V80.4124M8.5 56.9536L11 80.4124M8.5 56.9536H9.125M8.5 80.4124L11 56.9536M8.5 80.4124H9M11 80.4124V56.9536M11 80.4124H10.375M11 56.9536H10.375M9.75 80.4124V56.9536M9.75 80.4124H9M9.75 80.4124H10.375M9.75 56.9536H9.125M9.75 56.9536H10.375M9.125 56.9536L9 80.4124M10.375 80.4124V56.9536" stroke="#B8C84D" stroke-width="3"/>
<path d="M36.5 43.4773V11.5334L39 2.05011H40L42.5 11.5334V43.4773M36.5 43.4773H42.5M36.5 43.4773L32 43.9764V47.4703L35 48.9677V52.9607L32 54.9572V79.9133L37 85.9028H43L47 79.9133V54.9572L44 52.9607V48.9677L46.5 47.4703V43.9764L42.5 43.4773M38.5 56.9536V80.4124M38.5 56.9536L41 80.4124M38.5 56.9536H39.125M38.5 80.4124L41 56.9536M38.5 80.4124H39M41 80.4124V56.9536M41 80.4124H40.375M41 56.9536H40.375M39.75 80.4124V56.9536M39.75 80.4124H39M39.75 80.4124H40.375M39.75 56.9536H39.125M39.75 56.9536H40.375M39.125 56.9536L39 80.4124M40.375 80.4124V56.9536" stroke="#B8C84D" stroke-width="3"/>
<path d="M66.5 43.4773V15.0273H64.5V1.55096H75V15.0273H72.5V43.4773M66.5 43.4773H72.5M66.5 43.4773L62 43.9764V47.4703L65 48.9677V52.9606L62 54.9571V79.9133L67 85.9028H73L77 79.9133V54.9571L74 52.9606V48.9677L76.5 47.4703V43.9764L72.5 43.4773M68.5 56.9536V80.4124M68.5 56.9536L71 80.4124M68.5 56.9536H69.125M68.5 80.4124L71 56.9536M68.5 80.4124H69M71 80.4124V56.9536M71 80.4124H70.375M71 56.9536H70.375M69.75 80.4124V56.9536M69.75 80.4124H69M69.75 80.4124H70.375M69.75 56.9536H69.125M69.75 56.9536H70.375M69.125 56.9536L69 80.4124M70.375 80.4124V56.9536" stroke="#B8C84D" stroke-width="3"/>
</svg>
