<svg width="62" height="68" viewBox="0 0 62 68" fill="none" xmlns="http://www.w3.org/2000/svg">
<path fill-rule="evenodd" clip-rule="evenodd" d="M19.8829 66.1782L19.8829 19.4525L43.1004 19.4525C43.873 19.4525 44.5 18.8531 44.5 18.114V2.18176C44.5 1.44262 43.873 0.842773 43.1004 0.842773L1.89964 0.842773C1.12701 0.842773 0.5 1.44262 0.5 2.18176L0.5 66.1782C0.5 66.9174 1.12701 67.5172 1.89964 67.5172L18.4832 67.5172C19.2558 67.5172 19.8829 66.9174 19.8829 66.1782ZM41.7007 3.52026V16.7748L19.0571 16.7748L5.27234 3.52026L41.7007 3.52026ZM3.29932 5.42151L3.29932 64.8396L17.0841 65.027V60.6085H13.6132C12.8406 60.6085 12.2136 60.0091 12.2136 59.2699C12.2136 58.5308 12.8406 57.9309 13.6132 57.9309H17.0841V55.2534H13.6132C12.8406 55.2534 12.2136 54.6536 12.2136 53.9144C12.2136 53.1753 12.8406 52.5755 13.6132 52.5755H17.0841V49.8979H10.6466C9.87394 49.8979 9.24693 49.2981 9.24693 48.559C9.24693 47.8203 9.87394 47.2204 10.6466 47.2204H17.0841V44.5425H13.6132C12.8406 44.5425 12.2136 43.9426 12.2136 43.2039C12.2136 42.4648 12.8406 41.8649 13.6132 41.8649H17.0841V39.1874H13.6132C12.8406 39.1874 12.2136 38.5876 12.2136 37.8484C12.2136 37.1093 12.8406 36.5095 13.6132 36.5095H17.0841V33.8319H10.6466C9.87394 33.8319 9.24693 33.2321 9.24693 32.493C9.24693 31.7538 9.87394 31.1544 10.6466 31.1544L17.0841 31.1544L17.0841 28.4765L13.6132 28.4765C12.8406 28.4765 12.2136 27.8766 12.2136 27.1375C12.2136 26.3988 12.8406 25.7989 13.6132 25.7989L17.0841 25.7989V23.121L13.6132 23.121C12.8406 23.121 12.2136 22.5216 12.2136 21.7824C12.2136 21.0433 12.8406 20.4435 13.6132 20.4435L17.0841 20.4435V18.6094L3.29932 5.42151Z" fill="#B4C634"/>
<path fill-rule="evenodd" clip-rule="evenodd" d="M21.5 34.5713L21.5 34.5748L21.5 34.5851V34.5713ZM21.5 34.5748C21.5037 34.8617 21.602 35.1406 21.7806 35.3699L31.7037 48.4166C31.7037 48.4166 31.816 48.4978 31.8721 48.552C31.8939 48.573 31.9094 48.5941 31.9242 48.6144C31.9475 48.6462 31.9694 48.6761 32.0124 48.701L51.4509 62.4922C52.895 63.7307 54.9512 64.0527 56.7278 63.3179C57.6639 62.8697 58.4653 62.2 59.058 61.3689L60.2367 59.7855C61.0044 58.8489 61.4467 57.7027 61.5 56.5101C61.4424 54.851 60.533 53.3282 59.0718 52.4498L39.5772 38.7128C39.4973 38.6683 39.4116 38.633 39.3246 38.6045C39.3246 38.6045 39.2404 38.6045 39.1981 38.5233L23.3527 33.2989C22.6187 33.0595 21.8215 33.4398 21.5747 34.1475C21.5263 34.2851 21.5012 34.4293 21.5 34.5748ZM57.4155 54.6698C58.1299 55.0578 58.6099 55.7509 58.7069 56.5371C58.6479 57.1558 58.3939 57.7416 57.9773 58.2154L56.7981 59.7584C56.4866 60.2157 56.0628 60.5937 55.5629 60.8547L55.5533 60.8588C55.2911 60.9714 54.5208 61.3023 53.1209 60.3134L51.858 59.4199L54.0051 56.605L56.1384 53.7762L57.4155 54.6698ZM52.5597 53.8984L53.8792 52.1659L39.0858 41.7039L34.7911 47.3342L49.5845 57.7963L50.9035 56.0771L39.4792 47.9566C39.4297 47.9254 39.3836 47.8929 39.3389 47.8562C38.7438 47.3787 38.6634 46.5246 39.1591 45.9508C39.6542 45.377 40.5399 45.2985 41.1349 45.7774L52.5597 53.8984ZM36.5178 40.4856L32.8263 45.3311L30.5388 42.3263L32.8543 39.2811L36.5178 40.4856ZM28.7984 40.0388L30.0756 38.361L26.679 37.251L28.7984 40.0388Z" fill="#B4C634"/>
</svg>
