<svg width="87" height="73" viewBox="0 0 87 73" fill="none" xmlns="http://www.w3.org/2000/svg">
<path d="M2 59.3786L20 70.745H69.5L85 59.3787M2 59.3786V49.0008L6.5 47.0241M2 59.3786C3.8776 59.0647 5.70884 58.7688 7.5 58.4912M85 59.3787V50.4833C83.9492 47.4727 82.6149 46.7855 79 47.0241M85 59.3787C82.8687 59.0447 80.8846 58.7319 79 58.4403M6.5 47.0241L7.5 58.4912M6.5 47.0241C6.5035 28.2585 10.6262 19.5383 24.5 10.9485L24.5167 11.4427M7.5 58.4912C13.1682 57.6126 18.4351 56.9164 23.5 56.4066M25 25.7741C24.1311 27.0709 23.8836 27.9218 24 29.7276L23.5 56.4066M25 25.7741C27.3941 21.8331 29.5286 19.2232 32 17.551M25 25.7741L24.5167 11.4427M23.5 56.4066C36.6964 55.0783 48.5213 55.0161 62.5 56.2943M62.5 56.2943C62.3418 45.4033 62.8248 38.8913 61.4415 28.7392M62.5 56.2943C68.0197 56.7991 73.007 57.5129 79 58.4403M61.4415 28.7392C61.3115 27.7852 61.165 26.799 61 25.7741C58.8859 22.2741 56.9273 19.8762 54.5 18.223M61.4415 28.7392V10.4542M54.5 6.00662C54.8188 4.27518 57 3.53568 57.5 3.53568C58 3.53568 60.6688 4.30365 61.4415 6.00662V10.4542M54.5 6.00662V18.223M54.5 6.00662H48.5M54.5 18.223C52.801 17.0659 50.8723 16.2736 48.5 15.7238M48.5 6.00662V15.7238M48.5 6.00662C47.8196 2.45226 46.4356 1.83266 43 2.05313C39.9887 1.78211 38.7039 2.46668 37.5 6.00662V15.3531M48.5 15.7238C46.8926 15.3513 45.0814 15.09 43 14.902C40.9246 14.911 39.1175 15.0441 37.5 15.3531M37.5 15.3531C35.4061 15.7532 33.6298 16.4482 32 17.551M37 6.00662C34.8615 5.55191 33.7339 5.68441 32 7.48917M32 7.48917V17.551M32 7.48917C31.0433 5.17157 30.0928 4.54617 28 4.02987C25.4733 5.18403 24.9223 5.97895 24.5 7.48917L24.5167 11.4427M79 47.0241V58.4403M79 47.0241V34.6694C76.1491 23.7079 73.6933 17.8826 61.4415 10.4542M29 36.6461V51.9659" stroke="#B8C84D" stroke-width="3"/>
</svg>
